<svg width="132" height="38" viewBox="0 0 132 38" fill="none" xmlns="http://www.w3.org/2000/svg">
<g clip-path="url(#clip0)">
<path d="M109.641 0V5.73958H108.718V5.34375C108.513 5.54167 108.41 5.64062 108.103 5.73958C107.897 5.83854 107.59 5.83854 107.282 5.83854C106.872 5.83854 106.564 5.73958 106.256 5.54167C105.949 5.34375 105.744 5.14583 105.538 4.84896C105.333 4.55208 105.231 4.15625 105.231 3.76042C105.231 3.36458 105.333 2.96875 105.538 2.67188C105.744 2.375 105.949 2.17708 106.256 1.97917C106.564 1.78125 106.974 1.68229 107.282 1.68229C107.59 1.68229 107.795 1.68229 108 1.78125C108.205 1.88021 108.41 1.97917 108.615 2.17708V0H109.641ZM108.103 4.94792C108.308 4.84896 108.41 4.75 108.513 4.55208C108.615 4.35417 108.718 4.15625 108.718 3.85938C108.718 3.66146 108.615 3.36458 108.513 3.16667C108.41 2.96875 108.308 2.86979 108.103 2.77083C107.897 2.67188 107.692 2.57292 107.487 2.57292C107.282 2.57292 107.077 2.67188 106.872 2.77083C106.667 2.86979 106.564 2.96875 106.462 3.16667C106.359 3.36458 106.256 3.5625 106.256 3.85938C106.256 4.15625 106.359 4.35417 106.462 4.55208C106.564 4.75 106.667 4.84896 106.872 4.94792C107.077 5.04688 107.282 5.14583 107.487 5.14583C107.692 5.04687 107.897 5.04688 108.103 4.94792Z" fill="#666666"/>
<path d="M114.667 4.15641H111.487C111.59 4.45329 111.692 4.6512 111.897 4.84912C112.103 5.04704 112.41 5.146 112.821 5.146C113.231 5.146 113.641 5.04704 113.949 4.75016L114.462 5.34391C114.256 5.54183 114.051 5.73975 113.744 5.8387C113.436 5.93766 113.128 6.03662 112.821 6.03662C112.41 6.03662 112 5.93766 111.59 5.73975C111.282 5.54183 110.974 5.34391 110.769 5.04704C110.564 4.75016 110.462 4.35433 110.462 3.9585C110.462 3.56266 110.564 3.26579 110.769 2.86995C110.974 2.57308 111.179 2.2762 111.487 2.17725C111.795 1.97933 112.205 1.88037 112.615 1.88037C113.026 1.88037 113.333 1.97933 113.641 2.17725C113.949 2.37516 114.154 2.57308 114.359 2.86995C114.564 3.16683 114.667 3.56266 114.667 3.9585C114.769 3.9585 114.769 3.9585 114.667 4.15641ZM111.897 2.771C111.692 2.96891 111.59 3.16683 111.487 3.4637H113.846C113.846 3.16683 113.641 2.96891 113.436 2.771C113.231 2.57308 112.923 2.47412 112.615 2.47412C112.308 2.57308 112.103 2.67204 111.897 2.771Z" fill="#666666"/>
<path d="M116 5.73975C115.692 5.64079 115.385 5.54183 115.282 5.44287L115.692 4.75016C115.897 4.84912 116.103 4.94808 116.41 5.04704C116.718 5.146 116.923 5.146 117.128 5.146C117.744 5.146 117.949 5.04704 117.949 4.75016C117.949 4.6512 117.846 4.55225 117.744 4.45329C117.641 4.35433 117.333 4.35433 117.026 4.25537C116.718 4.15641 116.41 4.15641 116.205 4.05745C116 3.9585 115.795 3.85954 115.692 3.76058C115.487 3.56266 115.487 3.36475 115.487 3.06787C115.487 2.67204 115.692 2.37516 116 2.17725C116.308 1.97933 116.718 1.88037 117.333 1.88037C117.641 1.88037 117.846 1.88037 118.154 1.97933C118.462 2.07829 118.667 2.07829 118.872 2.2762L118.462 2.96891C118.154 2.771 117.744 2.67204 117.333 2.67204C117.026 2.67204 116.821 2.67204 116.718 2.771C116.615 2.86995 116.513 2.96891 116.513 3.06787C116.513 3.26579 116.615 3.36475 116.718 3.36475C116.923 3.4637 117.128 3.4637 117.436 3.56266C117.744 3.56266 118.051 3.66162 118.256 3.76058C118.462 3.85954 118.667 3.9585 118.769 4.05745C118.872 4.25537 118.974 4.45329 118.974 4.75016C118.974 5.146 118.769 5.44287 118.462 5.64079C118.154 5.8387 117.641 5.93766 117.128 5.93766C116.615 5.8387 116.308 5.8387 116 5.73975Z" fill="#666666"/>
<path d="M119.692 0.989583C119.59 0.890625 119.487 0.791667 119.487 0.59375C119.487 0.395833 119.59 0.296875 119.692 0.197917C119.795 0.0989583 120 0 120.103 0C120.308 0 120.41 0.0989583 120.513 0.197917C120.615 0.296875 120.718 0.395833 120.718 0.59375C120.718 0.791667 120.615 0.890625 120.513 0.989583C120.41 1.08854 120.205 1.1875 120.103 1.1875C119.897 1.1875 119.795 1.08854 119.692 0.989583ZM119.59 1.88021H120.513V5.83854H119.59V1.88021Z" fill="#666666"/>
<path d="M125.949 1.88037V5.24495C125.949 6.63037 125.231 7.32308 123.692 7.32308C123.282 7.32308 122.872 7.32308 122.564 7.22412C122.256 7.12516 121.949 7.0262 121.641 6.82829L122.051 6.13558C122.256 6.23454 122.462 6.43245 122.769 6.43245C123.077 6.53141 123.282 6.53141 123.59 6.53141C124 6.53141 124.41 6.43245 124.615 6.23454C124.821 6.03662 124.923 5.73975 124.923 5.34391V5.146C124.718 5.34391 124.513 5.44287 124.308 5.54183C124.103 5.64079 123.795 5.64079 123.487 5.64079C123.077 5.64079 122.769 5.54183 122.462 5.44287C122.154 5.24495 121.949 5.04704 121.744 4.75016C121.538 4.45329 121.436 4.15641 121.436 3.76058C121.436 3.36475 121.538 3.06787 121.744 2.771C121.949 2.47412 122.154 2.2762 122.462 2.07829C122.769 1.88037 123.179 1.88037 123.487 1.88037C123.795 1.88037 124.103 1.88037 124.308 1.97933C124.513 2.07829 124.718 2.17725 124.923 2.37516V1.88037H125.949ZM124.615 4.55225C124.821 4.35433 124.923 4.05745 124.923 3.76058C124.923 3.4637 124.821 3.16683 124.615 2.96891C124.41 2.771 124.103 2.67204 123.692 2.67204C123.282 2.67204 122.974 2.771 122.769 2.96891C122.564 3.16683 122.462 3.4637 122.462 3.76058C122.462 4.05745 122.564 4.35433 122.769 4.55225C122.974 4.75016 123.282 4.84912 123.692 4.84912C124.103 4.84912 124.41 4.75016 124.615 4.55225Z" fill="#666666"/>
<path d="M130.769 2.27604C131.077 2.57292 131.282 2.96875 131.282 3.5625V5.83854H130.256V3.66146C130.256 3.26562 130.154 3.06771 130.051 2.86979C129.846 2.67188 129.641 2.57292 129.333 2.57292C129.026 2.57292 128.718 2.67188 128.513 2.86979C128.308 3.06771 128.205 3.36458 128.205 3.76042V5.73958H127.179V1.78125H128.103V2.27604C128.308 2.07812 128.513 1.97917 128.718 1.88021C128.923 1.78125 129.231 1.78125 129.538 1.78125C130.051 1.78125 130.462 1.97917 130.769 2.27604Z" fill="#666666"/>
<path d="M0 2.86979V0H6.15385C9.33333 0 11.6923 1.78125 11.6923 4.75V9.69792C11.6923 11.6771 10.7692 13.0625 9.02564 13.8542C10.9744 14.6458 11.8974 16.0312 11.8974 18.1094V23.9479C11.8974 26.9167 9.53846 28.6979 6.46154 28.6979H0V25.7292H0.820513V2.86979H0ZM4.51282 12.4688H6.15385C7.17949 12.4688 8 11.776 8 10.5885V4.65104C8 3.5625 7.17949 2.86979 6.15385 2.86979H4.51282V12.4688ZM4.51282 15.3385V25.7292H6.25641C7.28205 25.7292 8.10256 25.0365 8.10256 23.849V17.1198C8.10256 16.0312 7.28205 15.2396 6.25641 15.2396H4.51282V15.3385Z" fill="#666666"/>
<path d="M14.5641 15.0417V9.5C16 8.51042 17.7436 8.01562 20 8.01562C23.0769 8.01562 25.4359 9.79687 25.4359 12.7656V25.7292H26.2564V28.599H21.7436V26.9167C20.718 28.2031 19.3846 28.7969 17.7436 28.7969C15.8974 28.7969 14.4615 27.5104 14.4615 25.5312V21.375C14.4615 18.5052 16.3077 17.0208 19.1795 16.625L21.7436 16.3281V12.5677C21.7436 11.4792 21.0256 10.6875 20 10.6875C19.3846 10.6875 18.7692 10.8854 18.4615 11.0833L18.2564 11.1823V14.8437H14.5641V15.0417ZM21.7436 19.2969L20 19.4948C18.7692 19.5937 18.1539 20.2865 18.1539 21.375V24.5417C18.1539 25.3333 18.6667 25.9271 19.3846 25.9271C20.6154 25.9271 21.7436 25.0365 21.7436 23.5521V19.2969Z" fill="#666666"/>
<path d="M28.4103 15.0415V8.21338H39.1795V9.89567L32.718 25.729H36.4103V21.7707H39.2821V28.5988H28.4103V26.9165L34.9744 10.9842H31.1795V14.9425H28.4103V15.0415Z" fill="#666666"/>
<path d="M41.641 28.599V25.7292H42.4615V11.0833H41.641V8.21354H46.1538V25.7292H46.9744V28.599H41.641ZM42.5641 4.45312V0H46.2564V4.45312H42.5641Z" fill="#666666"/>
<path d="M49.2308 2.86979V0H53.7436V25.7292H54.5641V28.599H49.2308V25.7292H50.0513V2.86979H49.2308Z" fill="#666666"/>
<path d="M68 19.4946H60.718V24.0467C60.718 25.2342 61.4359 25.9269 62.4616 25.9269C63.4872 25.9269 64.3077 25.2342 64.3077 24.0467V21.7707H68V24.1457C68 27.1144 65.6411 28.8957 62.4616 28.8957C59.3846 28.8957 57.0257 27.1144 57.0257 24.1457V12.6665C57.0257 9.69775 59.3846 7.9165 62.4616 7.9165C65.5385 7.9165 68 9.69775 68 12.6665V19.4946ZM60.718 16.7238H64.3077V12.7655C64.3077 11.578 63.5898 10.8853 62.4616 10.8853C61.4359 10.8853 60.718 11.578 60.718 12.7655V16.7238Z" fill="#666666"/>
<path d="M77.8461 11.0832V8.21338H83.1795V11.0832H82.1538L78.7692 28.6978H73.9487L70.5641 11.0832H69.5385V8.21338H73.8461L76.3077 25.63H76.4102L78.5641 10.9842H77.8461V11.0832Z" fill="#666666"/>
<path d="M91.8974 11.3804C91.3846 10.9845 90.8718 10.8856 90.2564 10.8856C89.3333 10.8856 88.6154 11.5783 88.6154 12.6668V14.8439C88.6154 15.9325 90.359 16.7241 92.1026 17.2189C93.9487 17.7137 95.6923 19.0991 95.6923 21.3752V24.146C95.6923 27.0158 93.3333 28.797 90.2564 28.797C88.3077 28.797 86.359 28.1043 85.5384 27.6095L84.9231 27.2137V21.771H88.6154V25.4325C89.1282 25.8283 89.641 25.9272 90.359 25.9272C91.3846 25.9272 92.1026 25.2345 92.1026 24.146V21.3752C92.1026 18.8022 85.0256 19.7918 85.0256 14.745V12.4689C85.0256 9.69808 87.282 7.81787 90.359 7.81787C92.3077 7.81787 94.2564 8.51058 95.0769 9.00537L95.6923 9.4012V14.9429H92V11.3804H91.8974Z" fill="#666666"/>
<path d="M98.1538 28.599V25.7292H98.9744V2.86979H98.1538V0H102.667V16.724H103.795L105.846 11.0833H105.128V8.21354H110.462V11.0833H109.436L106.462 18.1094L109.538 25.8281H110.564V28.6979H106.769L103.795 19.4948H102.667V25.7292H103.487V28.599H98.1538Z" fill="#666666"/>
<path d="M119.487 11.0832V8.21338H124V33.3488C124 36.3176 121.641 38.0988 118.564 38.0988C116.615 38.0988 114.564 37.5051 113.744 36.9113L113.128 36.5155V31.6665H116.821V34.6353C117.333 35.0311 117.846 35.1301 118.564 35.1301C119.487 35.1301 120.308 34.4373 120.308 33.2498V26.8176C119.282 28.104 117.949 28.6978 116.41 28.6978C114.462 28.6978 113.026 27.4113 113.026 25.3332V11.0832H112.205V8.21338H116.718V24.5415C116.718 25.4321 117.333 25.9269 118.051 25.9269C119.385 25.9269 120.308 25.0363 120.308 23.5519V11.0832H119.487Z" fill="#666666"/>
<path d="M126.564 28.5988V25.729H127.487V11.0832H126.564V8.21338H131.179V25.729H132V28.5988H126.564Z" fill="#666666"/>
</g>
<defs>
<clipPath id="clip0">
<rect width="132" height="38" fill="white"/>
</clipPath>
</defs>
</svg>
