<svg width="10" height="6" viewBox="0 0 10 6" fill="none" xmlns="http://www.w3.org/2000/svg">
<path d="M0.333699 1.0001C0.333394 0.82486 0.387645 0.655033 0.487032 0.520099C0.542998 0.444155 0.611732 0.381379 0.689298 0.335365C0.766862 0.289351 0.851733 0.261003 0.939051 0.251946C1.02637 0.24289 1.11442 0.253301 1.19815 0.282584C1.28189 0.311868 1.35967 0.359447 1.42703 0.422599L5.00037 3.7826L8.58037 0.5426C8.64856 0.4803 8.72702 0.433776 8.81125 0.405702C8.89547 0.377629 8.9838 0.368558 9.07115 0.379013C9.15851 0.389467 9.24316 0.41924 9.32025 0.46662C9.39734 0.514001 9.46535 0.578054 9.52037 0.655099C9.58106 0.732699 9.62683 0.823573 9.65483 0.92202C9.68282 1.02047 9.69242 1.12436 9.68303 1.22718C9.67364 1.33 9.64546 1.42953 9.60026 1.51951C9.55506 1.6095 9.49381 1.688 9.42037 1.7501L5.42037 5.3726C5.30108 5.48291 5.15145 5.54321 4.99703 5.54321C4.84261 5.54321 4.69299 5.48291 4.5737 5.3726L0.573699 1.6226C0.493021 1.54736 0.429245 1.45179 0.387546 1.34363C0.345846 1.23547 0.327398 1.11778 0.333699 1.0001Z" fill="#B0B0B0"/>
</svg>
