<svg width="16" height="16" viewBox="0 0 16 16" fill="" xmlns="http://www.w3.org/2000/svg">
<g clip-path="url(#clip0)">
<path d="M14.5936 1.90625H1.40606C1.18959 1.90625 0.986933 1.95947 0.803589 2.04719L7.96856 9.21216L9.57446 7.66881C9.57446 7.66881 9.57459 7.66866 9.57462 7.66859C9.57465 7.66853 9.57478 7.66847 9.57478 7.66847L15.1962 2.04731C15.0129 1.95953 14.8101 1.90625 14.5936 1.90625Z" fill=""/>
<path d="M15.8594 2.70996L10.5693 7.99977L15.8592 13.2897C15.9469 13.1063 16.0001 12.9037 16.0001 12.6872V3.31221C16.0001 3.09587 15.947 2.89324 15.8594 2.70996Z" fill=""/>
<path d="M0.140938 2.70996C0.0532188 2.8933 0 3.09596 0 3.31243V12.6874C0 12.9038 0.0531562 13.1065 0.140813 13.2897L5.43091 7.99993L0.140938 2.70996Z" fill=""/>
<path d="M9.90645 8.66315L8.30032 10.2067C8.20876 10.2982 8.08882 10.344 7.96891 10.344C7.84901 10.344 7.72904 10.2982 7.63751 10.2067L6.09388 8.66309L0.803696 13.9529C0.987071 14.0407 1.18985 14.094 1.40638 14.094H14.5939C14.8104 14.094 15.013 14.0408 15.1964 13.9531L9.90645 8.66315Z" fill=""/>
</g>
<defs>
<clipPath id="clip0">
<rect width="16" height="16" fill=""/>
</clipPath>
</defs>
</svg>
