<svg width="12" height="16" viewBox="0 0 12 16" fill="" xmlns="http://www.w3.org/2000/svg">
<path d="M6.00017 0C3.05942 0 0.666824 2.39259 0.666824 5.33334C0.666824 6.21616 0.887543 7.09147 1.30714 7.86784L5.70851 15.8281C5.76711 15.9342 5.87876 16 6.00017 16C6.12157 16 6.23323 15.9342 6.29182 15.8281L10.6948 7.86522C11.1128 7.09147 11.3335 6.21613 11.3335 5.33331C11.3335 2.39259 8.94092 0 6.00017 0ZM6.00017 8C4.52979 8 3.33351 6.80372 3.33351 5.33334C3.33351 3.86297 4.52979 2.66669 6.00017 2.66669C7.47054 2.66669 8.66682 3.86297 8.66682 5.33334C8.66682 6.80372 7.47054 8 6.00017 8Z" fill=""/>
</svg>
