<svg width="32" height="48" viewBox="0 0 32 48" fill="none" xmlns="http://www.w3.org/2000/svg">
<path d="M16.0005 0C7.17825 0 0.000473022 7.17778 0.000473022 16C0.000473022 18.6485 0.662629 21.2744 1.92141 23.6035L15.1255 47.4844C15.3013 47.8027 15.6363 48 16.0005 48C16.3647 48 16.6997 47.8027 16.8755 47.4844L30.0845 23.5957C31.3384 21.2744 32.0005 18.6484 32.0005 15.9999C32.0005 7.17778 24.8228 0 16.0005 0ZM16.0005 24C11.5894 24 8.00054 20.4112 8.00054 16C8.00054 11.5889 11.5894 8.00006 16.0005 8.00006C20.4116 8.00006 24.0005 11.5889 24.0005 16C24.0005 20.4112 20.4116 24 16.0005 24Z" fill="#F9B233"/>
</svg>
