<svg width="10" height="7" viewBox="0 0 10 7" fill="none" xmlns="http://www.w3.org/2000/svg">
<path d="M0.333333 1.5626C0.333028 1.38736 0.387279 1.21753 0.486666 1.0826C0.542632 1.00665 0.611366 0.943879 0.688931 0.897865C0.766496 0.851851 0.851367 0.823503 0.938684 0.814446C1.026 0.80539 1.11405 0.815801 1.19779 0.845084C1.28152 0.874368 1.3593 0.921947 1.42667 0.985099L5 4.3451L8.58 1.1051C8.64819 1.0428 8.72665 0.996276 8.81088 0.968202C8.89511 0.940129 8.98343 0.931058 9.07079 0.941513C9.15814 0.951967 9.24279 0.98174 9.31989 1.02912C9.39698 1.0765 9.46498 1.14055 9.52 1.2176C9.58069 1.2952 9.62647 1.38607 9.65446 1.48452C9.68245 1.58297 9.69206 1.68686 9.68267 1.78968C9.67328 1.8925 9.6451 1.99203 9.5999 2.08201C9.55469 2.172 9.49345 2.2505 9.42 2.3126L5.42 5.9351C5.30071 6.04541 5.15108 6.10571 4.99667 6.10571C4.84225 6.10571 4.69262 6.04541 4.57333 5.9351L0.573333 2.1851C0.492655 2.10986 0.428879 2.01429 0.387179 1.90613C0.34548 1.79797 0.327032 1.68028 0.333333 1.5626Z" fill="#B0B0B0"/>
</svg>
