<svg width="10" height="6" viewBox="0 0 10 6" fill="none" xmlns="http://www.w3.org/2000/svg">
<path d="M0.333333 4.83338C0.333028 4.98915 0.387279 5.14011 0.486666 5.26005C0.542632 5.32755 0.611366 5.38335 0.688931 5.42426C0.766496 5.46516 0.851367 5.49035 0.938684 5.49841C1.026 5.50646 1.11405 5.4972 1.19779 5.47117C1.28152 5.44514 1.3593 5.40285 1.42667 5.34671L5 2.36005L8.58 5.24005C8.64819 5.29542 8.72665 5.33678 8.81088 5.36173C8.89511 5.38669 8.98343 5.39475 9.07079 5.38546C9.15814 5.37616 9.24279 5.3497 9.31989 5.30758C9.39698 5.26547 9.46498 5.20853 9.52 5.14005C9.58069 5.07107 9.62647 4.99029 9.65446 4.90278C9.68245 4.81528 9.69206 4.72293 9.68267 4.63153C9.67328 4.54014 9.6451 4.45167 9.5999 4.37168C9.55469 4.29169 9.49345 4.22191 9.42 4.16671L5.42 0.946714C5.30071 0.84866 5.15108 0.795056 4.99667 0.795056C4.84225 0.795056 4.69262 0.84866 4.57333 0.946714L0.573333 4.28005C0.492655 4.34693 0.428879 4.43188 0.387179 4.52802C0.34548 4.62416 0.327032 4.72878 0.333333 4.83338Z" fill="#B0B0B0"/>
</svg>
