<svg width="60" height="52" viewBox="0 0 60 52" fill="" xmlns="http://www.w3.org/2000/svg">
<path d="M59.485 31.2675C58.7988 30.5813 57.6856 30.5813 56.9994 31.2675L46.1678 42.0991C45.1891 43.0778 43.8886 43.6161 42.5047 43.6161H42.5043C41.1205 43.6161 39.819 43.0769 38.8404 42.0982L38.7103 41.9682C36.6902 39.9481 36.6902 36.6613 38.7103 34.6408L57.4256 15.9255C59.0859 14.2657 60 12.0584 60 9.71094C60 7.36353 59.0859 5.15619 57.4256 3.49634C55.7657 1.83603 53.5584 0.921875 51.211 0.921875C48.8631 0.921875 46.6558 1.83603 44.9959 3.49634L41.5109 7.00555C40.118 6.14038 38.4787 5.71512 36.8138 5.81857C34.5346 5.96002 32.4225 7.07468 31.0199 8.87643L0.370808 48.2409C-0.173931 48.9404 -0.112133 49.9365 0.515003 50.5636C0.856037 50.9046 1.30602 51.0786 1.75829 51.0786C2.13778 51.0786 2.51863 50.9564 2.8377 50.7078L42.2022 20.0587C44.0039 18.6556 45.1186 16.5435 45.2596 14.2643C45.3653 12.5619 44.9199 10.8856 44.0154 9.4729L47.482 5.982C48.4781 4.9859 49.8024 4.4375 51.211 4.4375C52.6195 4.4375 53.9438 4.9859 54.9399 5.982C55.936 6.97809 56.4844 8.3024 56.4844 9.71094C56.4844 11.1195 55.9355 12.4438 54.9399 13.4399L36.2242 32.1551C32.8336 35.5462 32.8331 41.0632 36.2251 44.4547L36.3542 44.5843C37.9967 46.2267 40.1807 47.1317 42.5038 47.1317H42.5047C44.8274 47.1317 47.011 46.2277 48.6534 44.5852L59.485 33.7536C60.1717 33.067 60.1717 31.9541 59.485 31.2675ZM41.7508 14.0469C41.6721 15.3204 41.0491 16.5005 40.0424 17.2846L11.8199 39.2582L33.794 11.0362C34.5777 10.0291 35.7578 9.40653 37.0313 9.32733C37.1233 9.32184 37.2153 9.31863 37.3068 9.31863C37.8653 9.31863 38.4137 9.42529 38.926 9.62534L35.8896 12.7029C35.208 13.3941 35.2153 14.5069 35.9065 15.1885C36.5973 15.8706 37.7106 15.8633 38.3922 15.1721L41.4295 12.0936C41.6785 12.7061 41.7925 13.3726 41.7508 14.0469Z" fill=""/>
</svg>
