<svg width="60" height="60" viewBox="0 0 60 60" fill="" xmlns="http://www.w3.org/2000/svg">
<path d="M26.087 31.9561C27.1678 31.9561 28.0436 31.0803 28.0436 29.9995V22.1734C28.0436 21.0925 27.1678 20.2168 26.087 20.2168H18.2609C17.1801 20.2168 16.3043 21.0925 16.3043 22.1734C16.3043 23.2542 17.1801 24.1299 18.2609 24.1299H24.1305V28.0429H18.2609C17.1801 28.0429 16.3043 28.9187 16.3043 29.9995V37.8256C16.3043 38.9064 17.1801 39.7822 18.2609 39.7822H26.087C27.1678 39.7822 28.0436 38.9064 28.0436 37.8256C28.0436 36.7448 27.1678 35.8691 26.087 35.8691H20.2174V31.9561H26.087Z" fill=""/>
<path d="M10.4348 31.9561C11.5154 31.9561 12.3914 31.0801 12.3914 29.9995C12.3914 28.919 11.5154 28.043 10.4348 28.043C9.35425 28.043 8.47827 28.919 8.47827 29.9995C8.47827 31.0801 9.35425 31.9561 10.4348 31.9561Z" fill=""/>
<path d="M49.5652 31.9561C50.6458 31.9561 51.5218 31.0801 51.5218 29.9995C51.5218 28.919 50.6458 28.043 49.5652 28.043C48.4846 28.043 47.6086 28.919 47.6086 29.9995C47.6086 31.0801 48.4846 31.9561 49.5652 31.9561Z" fill=""/>
<path d="M30 51.5215C31.0806 51.5215 31.9566 50.6455 31.9566 49.565C31.9566 48.4844 31.0806 47.6084 30 47.6084C28.9194 47.6084 28.0435 48.4844 28.0435 49.565C28.0435 50.6455 28.9194 51.5215 30 51.5215Z" fill=""/>
<path d="M30 12.3916C31.0806 12.3916 31.9566 11.5157 31.9566 10.4351C31.9566 9.3545 31.0806 8.47852 30 8.47852C28.9194 8.47852 28.0435 9.3545 28.0435 10.4351C28.0435 11.5157 28.9194 12.3916 30 12.3916Z" fill=""/>
<path d="M41.7391 20.2178C40.6583 20.2178 39.7826 21.0935 39.7826 22.1743V28.0439H35.8695V22.1743C35.8695 21.0935 34.9938 20.2178 33.913 20.2178C32.8322 20.2178 31.9564 21.0935 31.9564 22.1743V30.0004C31.9564 31.0812 32.8322 31.9569 33.913 31.9569H39.7826V37.8265C39.7826 38.9073 40.6583 39.783 41.7391 39.783C42.8199 39.783 43.6957 38.9073 43.6957 37.8265V22.1742C43.6957 21.0935 42.8199 20.2178 41.7391 20.2178Z" fill=""/>
<path d="M58.0434 28.0434C56.9633 28.0434 56.0869 28.9192 56.0869 30C56.0869 44.3841 44.3839 56.087 29.9999 56.087C15.6158 56.087 3.91301 44.3841 3.91301 30C3.91301 15.6159 15.6159 3.91301 30 3.91301C37.0363 3.91301 43.7402 6.78727 48.611 11.7391H41.087C40.0062 11.7391 39.1304 12.6149 39.1304 13.6957C39.1304 14.7765 40.0062 15.6523 41.087 15.6523H52.8261C52.8277 15.6523 52.8292 15.6518 52.8306 15.6518C53.9312 15.6483 54.7827 14.7333 54.7827 13.6958V1.95656C54.7826 0.875742 53.9062 0 52.8261 0C51.7453 0 50.8696 0.875742 50.8696 1.95656V8.45461C45.3184 3.09012 37.8349 0 30 0C13.4582 0 0 13.4582 0 30C0 46.5418 13.4582 60 30 60C46.5418 60 60 46.5418 60 30C60 28.9192 59.1236 28.0434 58.0434 28.0434Z" fill=""/>
</svg>
