<svg width="61" height="61" viewBox="0 0 61 61" fill="" xmlns="http://www.w3.org/2000/svg">
<path d="M58.6343 28.9467L32.5342 2.84658C30.7275 1.03985 28.2318 0 25.6712 0H5.55018C2.48263 0 0 2.48263 0 5.55018V25.6712C0 28.2578 1.01385 30.7015 2.84658 32.5342L28.9467 58.6344C30.4805 60.1551 32.5082 61 34.6659 61C36.8236 61 38.8513 60.1551 40.385 58.6344L58.6473 40.372C60.1811 38.8513 61.013 36.8236 61.013 34.6529C61 32.5082 60.1681 30.4675 58.6343 28.9467ZM56.6716 38.4093L38.4093 56.6716C36.3946 58.6733 32.9111 58.6733 30.8964 56.6716L4.80929 30.5715C3.49648 29.2587 2.78159 27.5169 2.78159 25.6712V5.55018C2.78159 4.01641 4.0294 2.78159 5.55018 2.78159H25.6712C27.4909 2.78159 29.2847 3.52248 30.5715 4.80929L56.6716 30.9094C57.6725 31.9103 58.2314 33.2491 58.2314 34.6659C58.2314 36.0827 57.6855 37.4085 56.6716 38.4093Z" fill=""/>
<path d="M32.6642 34.6274C32.9371 34.9003 33.2881 35.0303 33.639 35.0303C33.99 35.0303 34.3539 34.9003 34.6139 34.6274C35.1598 34.0815 35.1598 33.2106 34.6139 32.6647L32.6512 30.702L34.6139 28.7392L37.5515 31.6768C38.0974 32.2227 38.9682 32.2227 39.5142 31.6768C40.0601 31.1309 40.0601 30.26 39.5142 29.7141L35.5887 25.7887C35.3288 25.5287 34.9778 25.3857 34.6139 25.3857C34.2499 25.3857 33.899 25.5287 33.639 25.7887L25.8012 33.6265C25.2553 34.1725 25.2553 35.0433 25.8012 35.5892L29.7266 39.5147C29.9996 39.7876 30.3505 39.9176 30.7015 39.9176C31.0524 39.9176 31.4164 39.7876 31.6763 39.5147C32.2222 38.9687 32.2222 38.0979 31.6763 37.552L28.7388 34.6144L30.7015 32.6517L32.6642 34.6274Z" fill=""/>
<path d="M43.4396 33.6389C42.8937 33.093 42.0228 33.093 41.4769 33.6389L33.6391 41.4768C33.0931 42.0227 33.0931 42.8936 33.6391 43.4395L37.5645 47.3649C37.8374 47.6379 38.1884 47.7679 38.5393 47.7679C38.8903 47.7679 39.2542 47.6379 39.5142 47.3649C40.0601 46.819 40.0601 45.9481 39.5142 45.4022L36.5766 42.4646L38.5393 40.5019L40.502 42.4646C40.775 42.7376 41.1259 42.8676 41.4769 42.8676C41.8278 42.8676 42.1918 42.7376 42.4517 42.4646C42.9977 41.9187 42.9977 41.0478 42.4517 40.5019L40.489 38.5392L42.4517 36.5765L45.3893 39.5141C45.9352 40.06 46.8061 40.06 47.352 39.5141C47.8979 38.9682 47.8979 38.0973 47.352 37.5514L43.4396 33.6389Z" fill=""/>
<path d="M17.9503 19.3415C18.3013 19.3415 18.6652 19.2116 18.9252 18.9386C19.4711 18.3927 19.4711 17.5218 18.9252 16.9759L16.9625 15.0132L18.9252 13.0505L21.8628 15.988C22.4087 16.534 23.2796 16.534 23.8255 15.988C24.3714 15.4421 24.3714 14.5712 23.8255 14.0253L19.9001 10.0999C19.3801 9.57998 18.4573 9.57998 17.9373 10.0999L14.0379 14.0253L10.1125 17.9507C9.56658 18.4967 9.56658 19.3675 10.1125 19.9135C10.3855 20.1864 10.7364 20.3164 11.0874 20.3164C11.4383 20.3164 11.8023 20.1864 12.0622 19.9135L14.9998 16.9759L16.9625 18.9386C17.2484 19.2116 17.5994 19.3415 17.9503 19.3415Z" fill=""/>
<path d="M27.01 27.0101C28.0369 26.9581 28.9987 26.5292 29.7266 25.8013C31.3514 24.1765 31.3514 21.5379 29.7266 19.9132L27.7639 17.9505C27.218 17.4045 26.3471 17.4045 25.8012 17.9505L21.9148 21.8369C21.9018 21.8499 21.8888 21.8629 21.8758 21.8759C21.8628 21.8889 21.8498 21.9019 21.8368 21.9149L17.9504 25.8013C17.4044 26.3472 17.4044 27.2181 17.9504 27.764C18.4963 28.3099 19.3672 28.3099 19.9131 27.764L22.8506 24.8264L23.8385 25.8013C24.3714 26.3472 24.3714 27.2181 23.8385 27.764L21.8758 29.7267C21.3299 30.2726 21.3299 31.1435 21.8758 31.6894C22.1487 31.9624 22.4997 32.0924 22.8506 32.0924C23.2016 32.0924 23.5655 31.9624 23.8255 31.6894L25.7882 29.7267C26.5551 28.9728 26.958 27.998 27.01 27.0101ZM26.7761 20.901L27.7509 21.8759C28.2968 22.4218 28.2968 23.2927 27.7509 23.8386C27.491 24.0986 27.14 24.2415 26.7761 24.2415C26.4121 24.2415 26.0612 24.0986 25.8012 23.8386L24.8264 22.8637L26.7761 20.901Z" fill=""/>
</svg>
