<svg width="60" height="60" viewBox="0 0 60 60" fill="" xmlns="http://www.w3.org/2000/svg">
<g clip-path="url(#clip0)">
<path d="M58.3908 26.6596L52.266 8.71222C51.7302 7.14226 50.9681 6.26968 49.548 5.60019L37.9058 0.111832C37.5917 -0.036176 37.2281 -0.0373478 36.9131 0.108785C36.5981 0.254918 36.364 0.533238 36.2742 0.868629C35.5147 3.70316 32.9347 5.68293 30.0001 5.68293C27.0655 5.68293 24.4855 3.70316 23.726 0.868629C23.6361 0.533238 23.4021 0.254918 23.0871 0.108785C22.7722 -0.0373478 22.4086 -0.036176 22.0944 0.111832L10.4522 5.60019C9.03197 6.26968 8.2699 7.14214 7.73423 8.71222L1.60931 26.6596C1.23853 27.7462 1.31295 28.8423 1.81884 29.7461C2.29568 30.5979 3.10556 31.2072 4.04095 31.4175C5.60189 31.7686 6.8838 32.0637 8.12341 32.3489C9.1733 32.5906 10.2555 32.8397 11.5105 33.1236V56.3353C11.5105 58.356 13.146 59.9999 15.1562 59.9999H44.8438C46.8541 59.9999 48.4896 58.356 48.4896 56.3353V33.1236C49.7093 32.8475 50.7828 32.6004 51.8246 32.3608C53.0892 32.0699 54.3967 31.769 55.9591 31.4177C56.8944 31.2073 57.7045 30.598 58.1812 29.7461C58.6872 28.8422 58.7617 27.7462 58.3908 26.6596ZM30.0001 8.02668C33.525 8.02668 36.6738 5.92785 38.0751 2.78277L40.0515 3.71441C38.636 7.8148 34.6125 10.6175 30.0001 10.6175C25.3878 10.6175 21.3642 7.8148 19.9488 3.71453L21.9252 2.78289C23.3263 5.92785 26.4752 8.02668 30.0001 8.02668ZM56.1363 28.6012C55.9884 28.8652 55.7236 29.0682 55.445 29.1309C53.8769 29.4835 52.5665 29.7851 51.2993 30.0766C50.4095 30.2813 49.4962 30.4914 48.4897 30.7202V20.1896C48.4897 19.5423 47.9649 19.0177 47.3178 19.0177C46.6707 19.0177 46.146 19.5423 46.146 20.1896V56.3355C46.146 57.0638 45.5619 57.6563 44.8439 57.6563H15.1563C14.4384 57.6563 13.8544 57.0638 13.8544 56.3355V25.463C13.8544 24.8158 13.3296 24.2911 12.6825 24.2911C12.0354 24.2911 11.5106 24.8158 11.5106 25.463V30.7204C10.4744 30.4851 9.54982 30.2723 8.64912 30.065C7.40669 29.779 6.12209 29.4832 4.55529 29.1309C4.27673 29.0682 4.01177 28.8652 3.864 28.6012C3.68494 28.2812 3.67228 27.8714 3.82744 27.4165L9.95224 9.46914C10.2851 8.49402 10.6072 8.1182 11.4514 7.72023L17.8193 4.71836C19.6292 9.62628 24.4713 12.9612 30 12.9612C35.5288 12.9612 40.3708 9.62628 42.1808 4.71836L48.5485 7.72023C49.3927 8.1182 49.715 8.49414 50.0478 9.46925L56.1726 27.4166C56.328 27.8716 56.3154 28.2812 56.1363 28.6012Z" fill=""/>
<path d="M33.5158 31.916V21.1689C33.5158 19.2304 31.9386 17.6533 30 17.6533C29.2855 17.6533 28.6001 17.8658 28.0134 18.2682L25.3302 19.8173C23.6543 20.7805 23.0743 22.9275 24.0375 24.6032C24.5683 25.5269 25.479 26.1362 26.4845 26.3106V31.916C25.1203 32.3996 24.1408 33.703 24.1408 35.2309C24.1408 37.1694 25.7179 38.7465 27.6564 38.7465H32.3439C34.2824 38.7465 35.8595 37.1694 35.8595 35.2309C35.8595 33.703 34.8799 32.3996 33.5158 31.916ZM32.3439 36.4026H27.6564C27.0102 36.4026 26.4845 35.8769 26.4845 35.2308C26.4845 34.5846 27.0102 34.0589 27.6564 34.0589C28.3035 34.0589 28.8283 33.5342 28.8283 32.887V25.1176C28.8283 24.7554 28.6608 24.4135 28.3746 24.1916C28.167 24.0304 27.9136 23.9457 27.6564 23.9457C27.559 23.9457 27.461 23.9579 27.3648 23.9825C26.8611 24.1118 26.329 23.8868 26.0695 23.4355C25.7504 22.8801 25.9426 22.1686 26.5001 21.8483L29.2288 20.2729C29.2608 20.2544 29.2921 20.2344 29.3223 20.2128C29.5206 20.0716 29.7551 19.9971 30.0001 19.9971C30.6464 19.9971 31.1721 20.5228 31.1721 21.1689V32.8871C31.1721 33.5343 31.6969 34.059 32.344 34.059C32.9902 34.059 33.5159 34.5847 33.5159 35.2309C33.5159 35.877 32.9901 36.4026 32.3439 36.4026Z" fill=""/>
<path d="M12.6824 19.0176H12.6814C12.0343 19.0176 11.51 19.5422 11.51 20.1895C11.51 20.8367 12.0351 21.3613 12.6824 21.3613C13.3296 21.3613 13.8542 20.8367 13.8542 20.1895C13.8542 19.5422 13.3296 19.0176 12.6824 19.0176Z" fill=""/>
</g>
<defs>
<clipPath id="clip0">
<rect width="60" height="60" fill=""/>
</clipPath>
</defs>
</svg>
