<svg width="46" height="58" viewBox="0 0 46 58" fill="" xmlns="http://www.w3.org/2000/svg">
<path d="M10 38.6291C10 48.9911 18.075 57.4216 28 57.4216C37.925 57.4216 46 48.9911 46 38.6291C46 30.8573 41.457 24.1714 34.998 21.3149L38.707 17.4426C38.895 17.2474 39 16.9822 39 16.7045V1.04403H38.991C38.991 0.90935 38.976 0.773626 38.924 0.644166C38.769 0.253699 38.404 0 38 0H18C17.735 0 17.48 0.109623 17.293 0.305901L13.294 4.48097C13.112 4.66994 13 4.93095 13 5.22015V14.6164H1V16.7045H13V20.4358C8.451 24.5274 5.604 30.3218 5.086 36.541H0V38.6291H6.022C6.557 38.6291 6.997 38.1896 7.021 37.632C7.281 31.5652 9.971 25.8637 14.408 21.9246H19.791C13.987 25.0473 10 31.3553 10 38.6291ZM35 18.3603V5.65238L37 3.56432V16.2722L35 18.3603ZM33.586 4.17612H26.414L28.414 2.08806H35.586L33.586 4.17612ZM18.414 2.08806H25.586L23.586 4.17612H16.414L18.414 2.08806ZM15 19.8366V6.26418H23V11.4843H25V6.26418H33V19.8366H15ZM19.154 24.7216L21.128 28.2901L22.86 27.246L20.891 23.6849C22.753 22.715 24.816 22.1188 27 21.9768V26.1007H29V21.9779C31.184 22.1199 33.247 22.717 35.109 23.6859L33.135 27.2544L34.867 28.2984L36.845 24.7216C38.617 25.9546 40.14 27.5436 41.32 29.3936L37.893 31.4587L38.893 33.267L42.312 31.206C43.24 33.15 43.812 35.3039 43.948 37.584H40V39.6721H43.949C43.813 41.9522 43.241 44.1061 42.313 46.0501L38.894 43.9891L37.894 45.7974L41.321 47.8625C40.14 49.7125 38.618 51.3026 36.846 52.5345L34.868 48.9577L33.136 50.0017L35.11 53.5702C33.248 54.5391 31.186 55.1362 29.002 55.2782V51.1575H27.002V55.2803C24.818 55.1383 22.755 54.5411 20.893 53.5723L22.862 50.0111L21.13 48.9671L19.156 52.5356C17.384 51.3036 15.861 49.7136 14.681 47.8635L18.108 45.7984L17.108 43.9902L13.689 46.0511C12.761 44.1071 12.189 41.9533 12.053 39.6731H16V37.5851H12.051C12.187 35.3049 12.759 33.1511 13.687 31.2071L17.106 33.268L18.106 31.4597L14.679 29.3947C15.86 27.5446 17.383 25.9546 19.154 24.7216Z" fill=""/>
</svg>
