<svg width="60" height="60" viewBox="0 0 60 60" fill="" xmlns="http://www.w3.org/2000/svg">
<path d="M44.7656 60C45.4128 60 45.9375 59.4753 45.9375 58.8281C45.9375 58.1809 45.4128 57.6562 44.7656 57.6562C44.1184 57.6562 43.5938 58.1809 43.5938 58.8281C43.5938 59.4753 44.1184 60 44.7656 60Z" fill=""/>
<path d="M58.8281 15.4688H45.9375V9.60938C45.9375 8.96227 45.4127 8.4375 44.7656 8.4375H31.1719V1.17188C31.1719 0.524766 30.6471 0 30 0H1.17188C0.524648 0 0 0.524766 0 1.17188V44.7656C0 45.4127 0.524648 45.9375 1.17188 45.9375H14.7656V51.7969C14.7656 52.444 15.2903 52.9688 15.9375 52.9688H29.5312V58.8281C29.5312 59.4752 30.056 60 30.7031 60H39.4922C40.1393 60 40.6641 59.4752 40.6641 58.8281C40.6641 58.181 40.1393 57.6562 39.4922 57.6562H31.875V46.8582C32.3415 47.4532 32.8186 48.2357 33.2181 48.8911C34.44 50.8959 35.7034 52.9688 37.7344 52.9688C39.7654 52.9688 41.0288 50.8959 42.2507 48.8911C43.0104 47.6446 44.0509 45.9375 44.7656 45.9375C45.4804 45.9375 46.5209 47.6446 47.2806 48.8911C48.5025 50.8959 49.7659 52.9688 51.7969 52.9688C53.8279 52.9688 55.0913 50.8959 56.3132 48.8911C56.7127 48.2357 57.1897 47.4532 57.6562 46.8582V57.6562H50.0391C49.392 57.6562 48.8672 58.181 48.8672 58.8281C48.8672 59.4752 49.392 60 50.0391 60H58.8281C59.4752 60 60 59.4752 60 58.8281V16.6406C60 15.9935 59.4752 15.4688 58.8281 15.4688ZM29.5312 29.5312H17.1094V21.3281H29.5312V29.5312ZM17.1094 31.875H29.5312V40.0781H17.1094V31.875ZM31.875 25.7645C32.3415 26.3595 32.8186 27.1419 33.2181 27.7973C34.44 29.8022 35.7034 31.875 37.7344 31.875C39.7654 31.875 41.0288 29.8022 42.2507 27.7973C43.0104 26.5508 44.0509 24.8438 44.7656 24.8438C45.4804 24.8438 46.5209 26.5508 47.2806 27.7973C48.5025 29.8022 49.7659 31.875 51.7969 31.875C53.8279 31.875 55.0913 29.8022 56.3132 27.7973C56.7127 27.1419 57.1897 26.3595 57.6562 25.7645V33.2968C56.2747 33.9057 55.28 35.5359 54.3118 37.1244C53.5521 38.3711 52.5116 40.0781 51.7969 40.0781C51.0821 40.0781 50.0416 38.3711 49.2819 37.1245C48.06 35.1197 46.7966 33.0469 44.7656 33.0469C42.7346 33.0469 41.4712 35.1197 40.2493 37.1245C39.4896 38.3711 38.4491 40.0781 37.7344 40.0781C37.0196 40.0781 35.9791 38.3711 35.2194 37.1245C34.2512 35.5361 33.2565 33.9059 31.875 33.297V25.7645ZM57.6562 22.75C56.2747 23.3589 55.28 24.9891 54.3118 26.5775C53.5521 27.8242 52.5116 29.5312 51.7969 29.5312C51.0821 29.5312 50.0416 27.8242 49.2819 26.5777C48.06 24.5728 46.7966 22.5 44.7656 22.5C42.7346 22.5 41.4712 24.5728 40.2493 26.5777C39.4896 27.8242 38.4491 29.5312 37.7344 29.5312C37.0196 29.5312 35.9791 27.8242 35.2194 26.5777C34.2512 24.9892 33.2565 23.359 31.875 22.7501V17.8125H57.6562V22.75ZM43.5938 15.4688H30.7031C30.056 15.4688 29.5312 15.9935 29.5312 16.6406V18.9844H17.1094V10.7812H43.5938V15.4688ZM2.34375 43.5938V2.34375H28.8281V8.4375H15.9375C15.2903 8.4375 14.7656 8.96227 14.7656 9.60938V43.5938H2.34375ZM17.1094 50.625V42.4219H29.5312V50.625H17.1094ZM54.3118 47.6714C53.5521 48.9179 52.5116 50.625 51.7969 50.625C51.0821 50.625 50.0416 48.9179 49.2819 47.6714C48.06 45.6666 46.7966 43.5938 44.7656 43.5938C42.7346 43.5938 41.4712 45.6666 40.2493 47.6714C39.4896 48.9179 38.4491 50.625 37.7344 50.625C37.0196 50.625 35.9791 48.9179 35.2194 47.6714C34.2512 46.0829 33.2565 44.4527 31.875 43.8438V36.3115C32.3415 36.9064 32.8186 37.6889 33.2181 38.3443C34.44 40.3491 35.7034 42.4219 37.7344 42.4219C39.7654 42.4219 41.0288 40.3491 42.2507 38.3442C43.0104 37.0977 44.0509 35.3906 44.7656 35.3906C45.4804 35.3906 46.5209 37.0977 47.2806 38.3442C48.5025 40.3491 49.7659 42.4219 51.7969 42.4219C53.8279 42.4219 55.0913 40.3491 56.3132 38.3442C56.7127 37.6888 57.1897 36.9063 57.6562 36.3114V43.8437C56.2747 44.4527 55.28 46.0828 54.3118 47.6714Z" fill=""/>
</svg>
