<svg width="50" height="50" viewBox="0 0 50 50" fill="" xmlns="http://www.w3.org/2000/svg">
<path d="M49.6973 22.4023C49.7168 22.3828 49.7461 22.3535 49.7656 22.334C49.7754 22.3242 49.7754 22.3145 49.7852 22.3145C49.8047 22.2949 49.8145 22.2754 49.834 22.2559C49.834 22.2461 49.8438 22.2461 49.8438 22.2363C49.8535 22.2168 49.873 22.1875 49.8828 22.168C49.8828 22.168 49.8828 22.1582 49.8926 22.1582C49.9023 22.1289 49.9219 22.1094 49.9316 22.0801V22.0703C49.9414 22.041 49.9512 22.0117 49.9609 21.9824V21.9727C49.9707 21.9434 49.9805 21.9141 49.9805 21.8848C49.9805 21.875 49.9805 21.8652 49.9805 21.8555C49.9805 21.8262 49.9902 21.8066 49.9902 21.7773C49.9902 21.7383 50 21.709 50 21.6699C50 21.6309 50 21.6016 49.9902 21.5625C49.9902 21.5332 49.9805 21.5137 49.9805 21.4844C49.9805 21.4746 49.9805 21.4648 49.9805 21.4551C49.9707 21.4258 49.9707 21.3965 49.9609 21.3672V21.3574C49.9512 21.3281 49.9414 21.2988 49.9316 21.2695V21.2598C49.9219 21.2305 49.9121 21.2109 49.8926 21.1816C49.8926 21.1816 49.8926 21.1719 49.8828 21.1719C49.873 21.1523 49.8535 21.123 49.8438 21.1035C49.8438 21.0938 49.834 21.0938 49.834 21.084C49.8242 21.0645 49.8047 21.0449 49.7949 21.0254C49.7852 21.0156 49.7852 21.0059 49.7754 20.9961C49.7559 20.9766 49.7363 20.957 49.7266 20.9375C49.7168 20.9277 49.7168 20.9277 49.707 20.918L29.0723 0.302734C29.0625 0.292969 29.043 0.273438 29.0234 0.263672C29.0137 0.253906 29.0039 0.244141 28.9941 0.234375C28.9746 0.224609 28.9648 0.205078 28.9453 0.195312C28.9355 0.185547 28.9258 0.175781 28.916 0.175781C28.8965 0.166016 28.877 0.15625 28.8672 0.146484C28.8574 0.136719 28.8477 0.136719 28.8281 0.126953C28.8086 0.117187 28.7891 0.107422 28.7793 0.0976562C28.7695 0.0878906 28.75 0.0878906 28.7402 0.078125C28.7207 0.0683594 28.7109 0.0683594 28.6914 0.0585938C28.6719 0.0488281 28.6621 0.0488281 28.6426 0.0390625C28.623 0.0390625 28.6133 0.0292969 28.5937 0.0292969C28.5742 0.0292969 28.5645 0.0195312 28.5449 0.0195312C28.5254 0.0195312 28.5059 0.00976562 28.4961 0.00976562C28.4766 0.00976562 28.4668 0 28.4473 0C28.418 0 28.3887 0 28.3594 0C28.3496 0 28.3496 0 28.3398 0C28.3301 0 28.3203 0 28.3203 0C28.291 0 28.2715 0 28.2422 0C28.2227 0 28.2031 0.00976562 28.1836 0.00976562C28.1641 0.00976562 28.1543 0.00976562 28.1348 0.0195312C28.1152 0.0195312 28.0957 0.0292969 28.0762 0.0292969C28.0664 0.0292969 28.0469 0.0390625 28.0371 0.0390625C28.0176 0.0488281 27.998 0.0488281 27.9785 0.0585938C27.9688 0.0585938 27.9492 0.0683594 27.9395 0.0683594C27.9199 0.078125 27.9004 0.0878906 27.8906 0.0976562C27.8809 0.107422 27.8613 0.107422 27.8516 0.117188C27.832 0.126953 27.8223 0.136719 27.8027 0.146484C27.793 0.15625 27.7734 0.15625 27.7637 0.166016C27.7441 0.175781 27.7246 0.195312 27.7051 0.205078C27.6953 0.214844 27.6855 0.214844 27.6758 0.224609C27.6465 0.244141 27.6172 0.273438 27.5977 0.292969L0.302734 27.5977C0.283203 27.6172 0.253906 27.6465 0.234375 27.666C0.224609 27.6758 0.224609 27.6855 0.214844 27.6855C0.195312 27.7051 0.185547 27.7246 0.166016 27.7441C0.166016 27.7539 0.15625 27.7539 0.15625 27.7637C0.146484 27.7832 0.126953 27.8125 0.117188 27.832C0.117188 27.832 0.117188 27.8418 0.107422 27.8418C0.0976562 27.8711 0.078125 27.8906 0.0683594 27.9199V27.9297C0.0585938 27.959 0.0488281 27.9883 0.0390625 28.0176V28.0273C0.0292969 28.0566 0.0195312 28.0859 0.0195312 28.1152C0.0195312 28.125 0.0195312 28.1348 0.0195312 28.1445C0.0195312 28.1738 0.00976562 28.1934 0.00976562 28.2227C0.00976562 28.2617 0 28.291 0 28.3301C0 28.3691 0 28.3984 0.00976562 28.4375C0.00976562 28.4668 0.0195312 28.4863 0.0195312 28.5156C0.0195312 28.5254 0.0195312 28.5352 0.0195312 28.5449C0.0292969 28.5742 0.0292969 28.6035 0.0390625 28.6328V28.6426C0.0488281 28.6719 0.0585938 28.7012 0.0683594 28.7305V28.7402C0.078125 28.7695 0.0878906 28.7891 0.107422 28.8184C0.107422 28.8184 0.107422 28.8281 0.117188 28.8281C0.126953 28.8477 0.146484 28.877 0.15625 28.8965C0.15625 28.9062 0.166016 28.9062 0.166016 28.916C0.175781 28.9355 0.195312 28.9551 0.205078 28.9746C0.214844 28.9844 0.214844 28.9941 0.224609 29.0039C0.244141 29.0234 0.263672 29.043 0.273438 29.0625C0.283203 29.0723 0.283203 29.0723 0.292969 29.082L19.1406 47.9297H14.5703C13.9941 47.9297 13.5254 48.3984 13.5254 48.9746C13.5254 49.5508 13.9941 50.0195 14.5703 50.0195H35.4004C35.9766 50.0195 36.4453 49.5508 36.4453 48.9746C36.4453 48.3984 35.9766 47.9297 35.4004 47.9297H24.1797L49.6973 22.4023ZM35.8301 22.7051H46.4355L21.6699 47.4805L3.55469 29.375H20.625V38.6133C20.625 39.1895 21.0938 39.6582 21.6699 39.6582C22.2461 39.6582 22.7148 39.1895 22.7148 38.6133V29.375H28.3398C28.916 29.375 29.3848 28.9062 29.3848 28.3301V3.55469L46.4551 20.625H35.8301C35.2539 20.625 34.7852 21.0938 34.7852 21.6699C34.7949 22.2363 35.2637 22.7051 35.8301 22.7051ZM3.55469 27.2949L27.2949 3.55469V27.2949H3.55469Z" fill=""/>
<path d="M32.5 20.625H31.875C31.2988 20.625 30.8301 21.0937 30.8301 21.6699C30.8301 22.2461 31.2988 22.7148 31.875 22.7148H32.5C33.0762 22.7148 33.5449 22.2461 33.5449 21.6699C33.5449 21.0937 33.0762 20.625 32.5 20.625Z" fill=""/>
<path d="M21.6699 40.8984C21.0937 40.8984 20.625 41.3672 20.625 41.9434V42.5684C20.625 43.1445 21.0937 43.6133 21.6699 43.6133C22.2461 43.6133 22.7148 43.1445 22.7148 42.5684V41.9434C22.7051 41.3672 22.2461 40.8984 21.6699 40.8984Z" fill=""/>
</svg>
