<svg width="50" height="50" viewBox="0 0 50 50" fill="" xmlns="http://www.w3.org/2000/svg">
<path d="M48.3203 44.7461H43.7402V42.207C44.541 42.0801 45.166 41.3867 45.166 40.5469V38.4375H45.8887C47.373 38.4375 48.5742 37.2363 48.5742 35.752V16.9043C48.5742 15.4199 47.373 14.2188 45.8887 14.2188H45.166V12.1094C45.166 11.2695 44.5508 10.5762 43.7402 10.4492V2.1582C43.7402 0.966797 42.7734 0 41.5918 0C40.4102 0 39.4336 0.966797 39.4336 2.1582V10.4492C38.6328 10.5762 38.0078 11.2695 38.0078 12.1094V14.2188H37.2852C35.8008 14.2188 34.5996 15.4199 34.5996 16.9043V35.752C34.5996 37.2363 35.8008 38.4375 37.2852 38.4375H38.0078V40.5469C38.0078 41.3867 38.623 42.0801 39.4336 42.207V44.7461H27.1582V42.207C27.959 42.0801 28.584 41.3867 28.584 40.5469V38.4375H29.3066C30.791 38.4375 31.9922 37.2363 31.9922 35.752V20.6934C31.9922 19.209 30.791 18.0078 29.3066 18.0078H28.584V15.8984C28.584 15.0586 27.9688 14.3652 27.1582 14.2383V9.73633C27.1582 8.54492 26.1914 7.57812 25 7.57812C23.8086 7.57812 22.8418 8.54492 22.8418 9.73633V14.2383C22.041 14.3652 21.416 15.0586 21.416 15.8984V18.0078H20.6934C19.209 18.0078 18.0078 19.209 18.0078 20.6934V35.7422C18.0078 37.2266 19.209 38.4277 20.6934 38.4277H21.416V40.5371C21.416 41.377 22.0312 42.0703 22.8418 42.1973V44.7363H17.793C17.3926 44.7363 17.0605 45.0684 17.0605 45.4688C17.0605 45.8691 17.3926 46.2012 17.793 46.2012H48.3203C48.4375 46.2012 48.5352 46.2988 48.5352 46.416V48.3105C48.5352 48.4277 48.4375 48.5254 48.3203 48.5254H36.7578C36.3574 48.5254 36.0254 48.8574 36.0254 49.2578C36.0254 49.6582 36.3574 49.9902 36.7578 49.9902H48.3203C49.248 49.9902 50 49.2383 50 48.3105V46.416C50 45.498 49.248 44.7461 48.3203 44.7461ZM41.5918 1.46484C41.9727 1.46484 42.2852 1.77734 42.2852 2.1582V10.4297H40.9082V2.1582C40.8984 1.77734 41.2109 1.46484 41.5918 1.46484ZM39.4824 12.1094C39.4824 11.9922 39.5801 11.8945 39.6973 11.8945H43.4863C43.6035 11.8945 43.7012 11.9922 43.7012 12.1094V14.2188H39.4824V12.1094ZM36.0645 35.752V30.8496H45.4102C45.8105 30.8496 46.1426 30.5176 46.1426 30.1172C46.1426 29.7168 45.8105 29.3848 45.4102 29.3848H36.0645V27.0605H38.6914C39.0918 27.0605 39.4238 26.7285 39.4238 26.3281C39.4238 25.9277 39.0918 25.5957 38.6914 25.5957H36.0645V23.2715H42.0508C42.4512 23.2715 42.7832 22.9395 42.7832 22.5391C42.7832 22.1387 42.4512 21.8066 42.0508 21.8066H36.0645V19.4824H45.4102C45.8105 19.4824 46.1426 19.1504 46.1426 18.75C46.1426 18.3496 45.8105 18.0176 45.4102 18.0176H36.0645V16.9141C36.0645 16.2402 36.6113 15.6934 37.2852 15.6934H45.8887C46.5625 15.6934 47.1094 16.2402 47.1094 16.9141V21.8164H45.4102C45.0098 21.8164 44.6777 22.1484 44.6777 22.5488C44.6777 22.9492 45.0098 23.2812 45.4102 23.2812H47.1094V25.6055H42.0508C41.6504 25.6055 41.3184 25.9375 41.3184 26.3379C41.3184 26.7383 41.6504 27.0703 42.0508 27.0703H47.1094V33.1934H38.6914C38.291 33.1934 37.959 33.5254 37.959 33.9258C37.959 34.3262 38.291 34.6582 38.6914 34.6582H47.1094V35.7617C47.1094 36.4355 46.5625 36.9824 45.8887 36.9824H37.2852C36.6113 36.9727 36.0645 36.4258 36.0645 35.752ZM43.7012 38.4375V40.5469C43.7012 40.6641 43.6035 40.7617 43.4863 40.7617H39.6973C39.5801 40.7617 39.4824 40.6641 39.4824 40.5469V38.4375H43.7012ZM40.8984 42.2266H42.2754V44.7461H40.8984V42.2266ZM25 9.05273C25.3809 9.05273 25.6934 9.36523 25.6934 9.74609V14.2285H24.3164V9.73633C24.3066 9.35547 24.6191 9.05273 25 9.05273ZM22.8906 15.8984C22.8906 15.7812 22.9883 15.6836 23.1055 15.6836H26.8945C27.0117 15.6836 27.1094 15.7812 27.1094 15.8984V18.0078H22.8906V15.8984ZM19.4727 35.752V30.8496H28.8184C29.2188 30.8496 29.5508 30.5176 29.5508 30.1172C29.5508 29.7168 29.2188 29.3848 28.8184 29.3848H19.4727V27.0605H22.0996C22.5 27.0605 22.832 26.7285 22.832 26.3281C22.832 25.9277 22.5 25.5957 22.0996 25.5957H19.4727V23.2715H25.459C25.8594 23.2715 26.1914 22.9395 26.1914 22.5391C26.1914 22.1387 25.8594 21.8066 25.459 21.8066H19.4727V20.7031C19.4727 20.0293 20.0195 19.4824 20.6934 19.4824H29.2969C29.9707 19.4824 30.5176 20.0293 30.5176 20.7031V21.8066H28.8184C28.418 21.8066 28.0859 22.1387 28.0859 22.5391C28.0859 22.9395 28.418 23.2715 28.8184 23.2715H30.5176V25.5957H25.459C25.0586 25.5957 24.7266 25.9277 24.7266 26.3281C24.7266 26.7285 25.0586 27.0605 25.459 27.0605H30.5176V33.1836H22.0996C21.6992 33.1836 21.3672 33.5156 21.3672 33.916C21.3672 34.3164 21.6992 34.6484 22.0996 34.6484H30.5176V35.752C30.5176 36.4258 29.9707 36.9727 29.2969 36.9727H20.6934C20.0195 36.9727 19.4727 36.4258 19.4727 35.752ZM27.1094 38.4375V40.5469C27.1094 40.6641 27.0117 40.7617 26.8945 40.7617H23.1055C22.9883 40.7617 22.8906 40.6641 22.8906 40.5469V38.4375H27.1094ZM24.3066 42.2266H25.6836V44.7461H24.3066V42.2266ZM33.9062 48.5352H1.67969C1.5625 48.5352 1.46484 48.4375 1.46484 48.3203V46.4258C1.46484 46.3086 1.5625 46.2109 1.67969 46.2109H6.98242H14.9414C15.3418 46.2109 15.6738 45.8789 15.6738 45.4785C15.6738 45.0781 15.3418 44.7461 14.9414 44.7461H10.5566V42.207C11.3574 42.0801 11.9824 41.3867 11.9824 40.5469V38.4375H12.7051C14.1895 38.4375 15.3906 37.2363 15.3906 35.752V24.4922C15.3906 23.0078 14.1895 21.8066 12.7051 21.8066H11.9824V19.6973C11.9824 18.8574 11.3672 18.1641 10.5566 18.0371V13.5352C10.5566 12.3438 9.58984 11.377 8.39844 11.377C7.20703 11.377 6.24023 12.3438 6.24023 13.5352V18.0371C5.43945 18.1641 4.81445 18.8574 4.81445 19.6973V21.8066H4.0918C2.60742 21.8066 1.40625 23.0078 1.40625 24.4922V35.752C1.40625 37.2363 2.60742 38.4375 4.0918 38.4375H4.81445V40.5469C4.81445 41.3867 5.42969 42.0801 6.24023 42.207V44.7461H1.67969C0.751953 44.7461 0 45.498 0 46.4258V48.3203C0 49.248 0.751953 50 1.67969 50H33.9062C34.3066 50 34.6387 49.668 34.6387 49.2676C34.6387 48.8672 34.3164 48.5352 33.9062 48.5352ZM8.4082 12.8418C8.78906 12.8418 9.10156 13.1543 9.10156 13.5352V18.0176H7.72461V13.5352C7.72461 13.1543 8.02734 12.8418 8.4082 12.8418ZM6.29883 19.6875C6.29883 19.5703 6.39648 19.4727 6.51367 19.4727H10.3027C10.4199 19.4727 10.5176 19.5703 10.5176 19.6875V21.7969H6.29883V19.6875ZM2.89062 35.752V30.8496H12.2363C12.6367 30.8496 12.9688 30.5176 12.9688 30.1172C12.9688 29.7168 12.6367 29.3848 12.2363 29.3848H2.89062V27.0605H5.51758C5.91797 27.0605 6.25 26.7285 6.25 26.3281C6.25 25.9277 5.91797 25.5957 5.51758 25.5957H2.89062V24.4922C2.89062 23.8184 3.4375 23.2715 4.11133 23.2715H12.7148C13.3887 23.2715 13.9355 23.8184 13.9355 24.4922V25.5957H8.87695C8.47656 25.5957 8.14453 25.9277 8.14453 26.3281C8.14453 26.7285 8.47656 27.0605 8.87695 27.0605H13.9355V33.1836H5.51758C5.11719 33.1836 4.78516 33.5156 4.78516 33.916C4.78516 34.3164 5.11719 34.6484 5.51758 34.6484H13.9355V35.752C13.9355 36.4258 13.3887 36.9727 12.7148 36.9727H4.11133C3.4375 36.9727 2.89062 36.4258 2.89062 35.752ZM10.5176 38.4375V40.5469C10.5176 40.6641 10.4199 40.7617 10.3027 40.7617H6.51367C6.39648 40.7617 6.29883 40.6641 6.29883 40.5469V38.4375H10.5176ZM7.72461 42.2266H9.10156V44.7461H7.72461V42.2266Z" fill=""/>
</svg>
