<svg width="50" height="50" viewBox="0 0 50 50" fill="" xmlns="http://www.w3.org/2000/svg">
<path d="M48.3203 36.9727H46.0156V34.6484H47.3731C48.3008 34.6484 49.0528 33.8965 49.0528 32.9688V31.0742C49.0528 30.1465 48.3008 29.3945 47.3731 29.3945H46.0156V26.3086H47.3731C48.3008 26.3086 49.0528 25.5566 49.0528 24.6289V16.8555C49.0528 15.9277 48.3008 15.1758 47.3731 15.1758H45.9571C45.6055 13.0273 43.7403 11.3867 41.4942 11.3867H41.2793V9.82422C41.8457 9.54102 42.2266 8.96484 42.2266 8.29102V4.55078C42.2266 3.87695 41.836 3.30078 41.2793 3.01758V1.21094C41.2793 0.546875 40.7422 0 40.0684 0H37.2266C36.5625 0 36.0156 0.537109 36.0156 1.21094V3.02734C35.4492 3.31055 35.0684 3.88672 35.0684 4.56055V8.29102C35.0684 8.96484 35.459 9.54102 36.0156 9.82422V11.3867H32.7442V5C32.7442 3.80859 31.7774 2.8418 30.586 2.8418C29.3946 2.8418 28.4278 3.80859 28.4278 5V11.377H13.7793V10.0195C13.7793 9.0918 13.0274 8.33984 12.0996 8.33984H10.2051C9.27737 8.33984 8.52541 9.0918 8.52541 10.0195V11.377H8.31057C5.82033 11.377 3.78909 13.4082 3.78909 15.8984V26.3281C3.78909 27.7734 4.97073 28.9551 6.41604 28.9551H8.52541V30.3125C8.52541 31.2402 9.27737 31.9922 10.2051 31.9922H10.4199V33.1836H10.2051C9.80471 33.1836 9.47268 33.5156 9.47268 33.916C9.47268 34.3164 9.80471 34.6484 10.2051 34.6484H10.4199V35.6445H3.24221C2.6758 35.6445 2.14846 35.918 1.83596 36.3867C1.70901 36.5625 1.63088 36.7676 1.58205 36.9727C0.703148 37.0312 0.00978851 37.7637 0.00978851 38.6523V45.2441C0.00978851 46.1719 0.761741 46.9238 1.68948 46.9238H6.64065V48.3203C6.64065 49.248 7.3926 50 8.32033 50H13.252C14.1797 50 14.9317 49.248 14.9317 48.3203V46.9238H35.0781V48.3203C35.0781 49.248 35.8301 50 36.7578 50H41.6895C42.6172 50 43.3692 49.248 43.3692 48.3203V46.9238H48.3203C49.2481 46.9238 50 46.1719 50 45.2441V38.6523C50 37.7246 49.2481 36.9727 48.3203 36.9727ZM46.0156 16.6309H47.3731C47.4903 16.6309 47.5879 16.7285 47.5879 16.8457V24.6191C47.5879 24.7363 47.4903 24.834 47.3731 24.834H46.0156V16.6309ZM46.0156 30.8496H47.3731C47.4903 30.8496 47.5879 30.9473 47.5879 31.0645V32.959C47.5879 33.0762 47.4903 33.1738 47.3731 33.1738H46.0156V30.8496ZM37.4903 1.46484H39.8145V2.8418H37.4903V1.46484ZM36.543 7.14844H38.6524C39.0528 7.14844 39.3848 6.81641 39.3848 6.41602C39.3848 6.01562 39.0528 5.68359 38.6524 5.68359H36.543V4.55078C36.543 4.41406 36.6504 4.30664 36.7871 4.30664H40.5176C40.6543 4.30664 40.7617 4.41406 40.7617 4.55078V8.28125C40.7617 8.41797 40.6543 8.52539 40.5176 8.52539H36.7871C36.6504 8.52539 36.543 8.41797 36.543 8.28125V7.14844ZM39.8145 10V11.377H37.4903V10H39.8145ZM29.9024 5C29.9024 4.61914 30.2149 4.30664 30.5957 4.30664C30.9766 4.30664 31.2891 4.61914 31.2891 5V11.377H29.9121L29.9024 5ZM10 10.0195C10 9.90234 10.0977 9.80469 10.2149 9.80469H12.1094C12.2266 9.80469 12.3242 9.90234 12.3242 10.0195V11.377H11.1621H10V10.0195ZM12.793 19.2188C12.793 20.1172 12.0606 20.8594 11.1524 20.8594C10.2442 20.8594 9.51174 20.127 9.51174 19.2188C9.51174 18.3105 10.2539 17.5781 11.1621 17.5781C12.0703 17.5781 12.793 18.3105 12.793 19.2188ZM6.41604 27.4902C5.77151 27.4902 5.25393 26.9727 5.25393 26.3281V15.8984C5.25393 14.209 6.63088 12.8418 8.31057 12.8418H10.4199V16.2012C9.06252 16.5332 8.0469 17.7539 8.0469 19.2188C8.0469 20.6836 9.06252 21.9043 10.4199 22.2363V25.3809C10.4199 25.7812 10.752 26.1133 11.1524 26.1133C11.5528 26.1133 11.8848 25.7812 11.8848 25.3809V22.2363C13.2422 21.9043 14.2578 20.6836 14.2578 19.2188C14.2578 17.7539 13.2422 16.5332 11.8848 16.2012V12.8418H41.4844C43.1738 12.8418 44.541 14.2188 44.541 15.8984V36.9238H26.8653V26.3281C26.8653 24.8828 25.6836 23.7012 24.2383 23.7012H16.3086C15.0586 23.7012 13.9746 24.5898 13.7305 25.8105L13.584 26.5527C13.4766 27.0898 12.9981 27.4902 12.4414 27.4902H6.41604ZM10.2149 30.5273C10.0977 30.5273 10 30.4297 10 30.3125V28.9551H12.3242V30.3125C12.3242 30.4297 12.2266 30.5273 12.1094 30.5273H10.2149ZM13.4571 48.3203C13.4571 48.4375 13.3594 48.5352 13.2422 48.5352H8.32033C8.20315 48.5352 8.10549 48.4375 8.10549 48.3203V46.9238H13.4668V48.3203H13.4571ZM41.9043 48.3203C41.9043 48.4375 41.8067 48.5352 41.6895 48.5352H36.7578C36.6406 48.5352 36.543 48.4375 36.543 48.3203V46.9238H41.9043V48.3203ZM48.5352 40.7617H36.6602C36.2598 40.7617 35.9278 41.0938 35.9278 41.4941C35.9278 41.8945 36.2598 42.2266 36.6602 42.2266H48.5352V45.2344C48.5352 45.3516 48.4375 45.4492 48.3203 45.4492H1.67971C1.56252 45.4492 1.46487 45.3516 1.46487 45.2344V38.6426C1.46487 38.5254 1.56252 38.4277 1.67971 38.4277H1.91409C2.0801 38.623 2.28518 38.7891 2.52932 38.8965L10.4492 42.5293C10.8985 42.7344 11.4258 42.7344 11.875 42.5293L19.7949 38.8965C20.2539 38.6816 20.5957 38.2812 20.7324 37.793C20.8692 37.3047 20.7813 36.7871 20.4981 36.3672C20.1758 35.8984 19.6485 35.625 19.0918 35.625H13.8965C13.4961 35.625 13.1641 35.957 13.1641 36.3574C13.1641 36.7578 13.4961 37.0898 13.8965 37.0898H19.0918C19.1699 37.0898 19.2481 37.1289 19.2969 37.1973C19.3555 37.2754 19.3457 37.3633 19.336 37.4023C19.3262 37.4414 19.2969 37.5195 19.1992 37.5586L11.2598 41.2109C11.1914 41.2402 11.1231 41.2402 11.0547 41.2109L3.13479 37.5781C3.0469 37.5391 3.00784 37.4609 2.99807 37.4219C2.9883 37.3828 2.97854 37.2949 3.03713 37.2168C3.08596 37.1484 3.15432 37.1094 3.24221 37.1094H10.4297V37.7051C10.4297 38.1055 10.7617 38.4375 11.1621 38.4375C11.5625 38.4375 11.8946 38.1055 11.8946 37.7051V31.9922H12.1094C13.0371 31.9922 13.7891 31.2402 13.7891 30.3125V28.5937C14.4141 28.2227 14.8731 27.5977 15.0293 26.8457L15.1758 26.1035C15.2832 25.5664 15.7617 25.166 16.3184 25.166H24.2481C24.8926 25.166 25.4102 25.6836 25.4102 26.3281V36.9727H22.334C21.9336 36.9727 21.6016 37.3047 21.6016 37.7051C21.6016 38.1055 21.9336 38.4375 22.334 38.4375H48.3203C48.4375 38.4375 48.5352 38.5352 48.5352 38.6523V40.7617ZM32.9883 19.4727H39.5703C40.5078 19.4727 41.2793 18.7012 41.2793 17.7637V16.875C41.2793 15.9375 40.5078 15.166 39.5703 15.166H32.9883C32.0508 15.166 31.2793 15.9375 31.2793 16.875V17.7637C31.2793 18.7109 32.0508 19.4727 32.9883 19.4727ZM32.7442 16.875C32.7442 16.7383 32.8516 16.6309 32.9883 16.6309H39.5703C39.7071 16.6309 39.8145 16.7383 39.8145 16.875V17.7637C39.8145 17.9004 39.7071 18.0078 39.5703 18.0078H32.9883C32.8516 18.0078 32.7442 17.9004 32.7442 17.7637V16.875ZM35.8106 30.8496C37.2559 30.8496 38.4375 29.668 38.4375 28.2227C38.4375 26.7773 37.2559 25.5957 35.8106 25.5957C34.3653 25.5957 33.1836 26.7773 33.1836 28.2227C33.1836 29.668 34.3555 30.8496 35.8106 30.8496ZM35.8106 27.0605C36.4551 27.0605 36.9727 27.5781 36.9727 28.2227C36.9727 28.8672 36.4551 29.3848 35.8106 29.3848C35.166 29.3848 34.6485 28.8672 34.6485 28.2227C34.6485 27.5781 35.166 27.0605 35.8106 27.0605ZM34.6875 41.4941C34.6875 41.8945 34.3555 42.2266 33.9551 42.2266H18.7403C18.3399 42.2266 18.0078 41.8945 18.0078 41.4941C18.0078 41.0938 18.3399 40.7617 18.7403 40.7617H33.9551C34.3653 40.7617 34.6875 41.0938 34.6875 41.4941ZM35.8106 33.6914C38.8281 33.6914 41.2793 31.2402 41.2793 28.2227C41.2793 25.2051 38.8281 22.7539 35.8106 22.7539C32.793 22.7539 30.3418 25.2051 30.3418 28.2227C30.3418 31.2402 32.793 33.6914 35.8106 33.6914ZM35.8106 24.2188C38.0176 24.2188 39.8145 26.0156 39.8145 28.2227C39.8145 30.4297 38.0176 32.2266 35.8106 32.2266C33.6035 32.2266 31.8067 30.4297 31.8067 28.2227C31.8067 26.0156 33.5938 24.2188 35.8106 24.2188Z" fill=""/>
</svg>
