<svg width="50" height="49" viewBox="0 0 50 49" fill="" xmlns="http://www.w3.org/2000/svg">
<g clip-path="url(#clip0)">
<path d="M31.2622 23.5107C30.8716 23.4741 28.833 23.291 27.8687 23.2056L26.294 19.2993C26.0498 18.7012 25.5494 18.3228 24.9878 18.3228C24.3897 18.3228 23.877 18.7378 23.7061 19.3359C23.5596 19.7266 22.6929 22.1436 22.3023 23.2056L18.689 23.5107C18.1275 23.5596 17.688 23.9136 17.5293 24.4385C17.3706 24.9878 17.566 25.6104 18.0176 25.9521C18.2495 26.1353 19.9585 27.3804 20.8008 28.0029L19.7632 31.5552C19.5435 32.2144 19.7022 32.6294 19.8731 32.8735C20.2637 33.4229 21.1792 33.4717 21.8262 33.02C22.1558 32.7881 24.0723 31.4209 24.9756 30.7739C25.8789 31.4209 27.7832 32.7759 28.125 33.02C28.418 33.2275 28.7842 33.3496 29.1138 33.3496C29.5044 33.3496 29.8584 33.1787 30.0782 32.898C30.2613 32.666 30.4322 32.251 30.2613 31.604C30.0904 30.9448 29.6021 28.9673 29.3579 28.0151L31.9214 26.0254C32.3853 25.6592 32.5928 25.0122 32.4097 24.4507C32.2754 23.9014 31.8116 23.5474 31.2622 23.5107ZM27.9297 27.0264C27.6734 27.2339 27.5513 27.5635 27.6368 27.8809C27.6368 27.8809 28.125 29.8706 28.4546 31.2012C27.3926 30.4443 25.4761 29.0771 25.4761 29.0771C25.3296 28.9673 25.1587 28.9185 24.9878 28.9185C24.8169 28.9185 24.646 28.9673 24.4995 29.0771C24.4995 29.0771 22.7173 30.3467 21.6309 31.1279L22.5708 27.9175C22.6685 27.5757 22.5464 27.2217 22.2657 27.0142C22.2657 27.0142 20.6299 25.8179 19.6778 25.1099L22.9981 24.8291C23.3277 24.8047 23.5962 24.585 23.7061 24.2798C23.7061 24.2798 24.5606 21.9116 25.0367 20.6055L26.5259 24.3042C26.648 24.5972 26.9165 24.7925 27.2217 24.8291C27.2217 24.8291 29.2359 25.0122 30.3955 25.1099L27.9297 27.0264Z" fill=""/>
<path d="M49.5361 5.09033L42.8711 1.75781C41.2109 0.927734 38.562 0 37.5 0H34.1675C33.7036 0 33.3374 0.378418 33.3374 0.830078C33.3374 5.41992 29.602 9.16748 25 9.16748C20.6909 9.16748 17.1264 5.87158 16.7114 1.67236H30.8349C31.2988 1.67236 31.665 1.29395 31.665 0.842285C31.665 0.378418 31.2866 0.012207 30.8349 0.012207H12.5C11.438 0.012207 8.78905 0.939941 7.12889 1.77002L0.463852 5.09033C0.109848 5.26123 -0.0732572 5.66406 0.024399 6.04248L3.35692 19.3726C3.46678 19.7876 3.86961 20.0684 4.30907 19.9951L8.33739 19.3237V44.1772C8.33739 46.4722 10.2051 48.3398 12.5 48.3398H37.5C39.7949 48.3398 41.6626 46.4722 41.6626 44.1772V19.3237L45.6909 19.9951C46.1059 20.0684 46.5332 19.7998 46.6308 19.3726L49.9634 6.04248C50.0732 5.65186 49.8901 5.26123 49.5361 5.09033ZM45.2148 18.2129L40.9668 17.5049C40.7226 17.4683 40.4785 17.5293 40.2954 17.688C40.1123 17.8467 40.0024 18.0786 40.0024 18.3228V43.3105H12.4756C12.0117 43.3105 11.6455 43.689 11.6455 44.1406C11.6455 44.6045 12.0239 44.9707 12.4756 44.9707H39.8437C39.5019 45.9473 38.5864 46.6431 37.5 46.6431H12.5C11.1206 46.6431 9.99754 45.52 9.99754 44.1406V18.335C9.99754 18.0908 9.88768 17.8589 9.70457 17.7002C9.52147 17.5415 9.26512 17.4683 9.03319 17.5171L4.79735 18.2251L1.80663 6.27441L3.61327 5.37109L6.24999 16.0278C6.34764 16.4062 6.68944 16.6626 7.05565 16.6626C7.11668 16.6626 7.18993 16.6504 7.25096 16.6382C7.70262 16.5283 7.97118 16.0767 7.86131 15.625L5.13914 4.61426L7.87352 3.24707C9.61913 2.38037 11.914 1.67236 12.5 1.67236H15.039C15.4663 6.79932 19.7632 10.8398 25 10.8398C30.2368 10.8398 34.5337 6.79932 34.9609 1.67236H37.5C38.0859 1.67236 40.3808 2.38037 42.1265 3.24707L44.8608 4.61426L42.1142 15.625C42.0044 16.0767 42.2729 16.5283 42.7246 16.6382C42.7978 16.6504 42.8589 16.6626 42.9321 16.6626C43.3105 16.6626 43.6401 16.4062 43.7378 16.0278L46.3867 5.37109L48.1933 6.27441L45.2148 18.2129Z" fill=""/>
</g>
<defs>
<clipPath id="clip0">
<rect width="50" height="48.3276" fill=""/>
</clipPath>
</defs>
</svg>
