<svg width="57" height="81" viewBox="0 0 57 81" fill="none" xmlns="http://www.w3.org/2000/svg">
<path d="M3.13112 77.6086C2.818 77.6086 2.66145 77.452 2.66145 77.1389C2.66145 76.8258 2.818 76.6693 3.13112 76.6693H4.69667C5.00978 76.6693 5.16634 76.8258 5.16634 77.1389V78.7045C5.16634 78.861 5.16634 79.0176 5.00978 79.0176C4.38356 79.6438 3.75734 79.9569 2.97456 79.9569C2.19178 79.9569 1.409 79.6438 0.939335 79.0176C0.313112 78.5479 0 77.7652 0 76.9824C0 76.1996 0.313112 75.4168 0.939335 74.9472C1.56556 74.3209 2.19178 74.0078 2.97456 74.0078C3.75734 74.0078 4.38356 74.3209 5.00978 74.7906C5.16634 74.9471 5.16634 74.9471 5.16634 75.2603C5.16634 75.5734 5.00978 75.7299 4.69667 75.7299C4.54012 75.7299 4.38356 75.7299 4.38356 75.5734C4.07045 75.2603 3.60078 74.9472 2.97456 74.9472C2.50489 74.9472 2.03523 75.1037 1.56556 75.5734C1.09589 76.043 0.939335 76.3562 0.939335 76.9824C0.939335 77.452 1.09589 77.9217 1.56556 78.3914C1.87867 78.7045 2.34834 79.0176 2.97456 79.0176C3.44423 79.0176 3.91389 78.861 4.22701 78.5479V77.6086H3.13112Z" fill="#3C3C3B"/>
<path d="M12.8378 74.4775C12.8378 74.1644 12.9943 74.0078 13.3074 74.0078H15.8123C16.282 74.0078 16.7517 74.1644 17.0648 74.634C17.3779 74.9472 17.691 75.4168 17.691 76.043C17.691 76.5127 17.5344 76.8258 17.3779 77.1389C17.0648 77.452 16.9082 77.7652 16.4386 77.7652L17.8476 79.0176C18.0041 79.1742 18.0041 79.1742 18.0041 79.3307C18.0041 79.8004 17.3779 79.9569 17.2213 79.6438L15.3427 77.7652H13.7771V79.3307C13.7771 79.6438 13.6205 79.8004 13.3074 79.8004C12.9943 79.8004 12.8378 79.6438 12.8378 79.3307V74.4775ZM13.7771 74.9472V76.8258H15.8123C16.1254 76.8258 16.282 76.6693 16.4386 76.5127C16.5951 76.3562 16.7517 76.043 16.7517 75.8865C16.7517 75.5734 16.5951 75.4168 16.4386 75.2603C16.282 75.1037 16.1254 74.9472 15.8123 74.9472H13.7771Z" fill="#3C3C3B"/>
<path d="M25.3622 76.9824C25.3622 76.1996 25.6753 75.4168 26.3015 74.9472C26.9277 74.3209 27.554 74.0078 28.3367 74.0078C29.1195 74.0078 29.9023 74.3209 30.372 74.9472C30.9982 75.5734 31.3113 76.1996 31.3113 76.9824C31.3113 77.7652 30.9982 78.5479 30.372 79.0176C29.7457 79.6438 29.1195 79.9569 28.3367 79.9569C27.554 79.9569 26.7712 79.6438 26.3015 79.0176C25.6753 78.5479 25.3622 77.7652 25.3622 76.9824ZM26.3015 76.9824C26.3015 77.452 26.4581 77.9217 26.9277 78.3914C27.2409 78.7045 27.7105 79.0176 28.3367 79.0176C28.8064 79.0176 29.2761 78.861 29.7457 78.3914C30.0589 78.0783 30.372 77.6086 30.372 76.9824C30.372 76.5127 30.2154 76.043 29.7457 75.5734C29.4326 75.2603 28.963 74.9472 28.3367 74.9472C27.8671 74.9472 27.3974 75.1037 26.9277 75.5734C26.4581 75.8865 26.3015 76.3562 26.3015 76.9824Z" fill="#3C3C3B"/>
<path d="M43.3659 74.4775C43.3659 74.1644 43.5225 74.0078 43.8356 74.0078C44.1487 74.0078 44.3053 74.1644 44.3053 74.4775V77.1389C44.3053 77.9217 43.9921 78.5479 43.5225 79.0176C43.0528 79.4873 42.27 79.8004 41.6438 79.8004C41.0176 79.8004 40.2348 79.4873 39.7651 79.0176C39.2955 78.5479 38.9824 77.7652 38.9824 77.1389V74.4775C38.9824 74.1644 39.1389 74.0078 39.452 74.0078C39.7651 74.0078 39.9217 74.1644 39.9217 74.4775V77.1389C39.9217 77.6086 40.0783 78.0783 40.3914 78.3914C40.7045 78.7045 41.1741 78.8611 41.6438 78.8611C42.1135 78.8611 42.5831 78.7045 42.8963 78.3914C43.2094 78.0783 43.3659 77.6086 43.3659 77.1389V74.4775Z" fill="#3C3C3B"/>
<path d="M52.1332 74.4775C52.1332 74.1644 52.2898 74.0078 52.6029 74.0078H55.1078C55.5775 74.0078 56.0471 74.1644 56.3603 74.634C56.6734 74.9472 56.9865 75.4168 56.9865 76.043C56.9865 76.5127 56.8299 76.9824 56.3603 77.4521C56.0471 77.7652 55.5775 78.0783 54.9512 78.0783H52.916V79.6438C52.916 79.957 52.7595 80.1135 52.4464 80.1135C52.1332 80.1135 51.9767 79.957 51.9767 79.6438V74.4775H52.1332ZM53.0726 74.9472V76.8258H55.1078C55.4209 76.8258 55.5775 76.6693 55.734 76.5127C55.8906 76.3562 56.0471 76.043 56.0471 75.8865C56.0471 75.5734 55.8906 75.4168 55.734 75.2603C55.5775 75.1037 55.4209 74.9472 55.1078 74.9472H53.0726Z" fill="#3C3C3B"/>
<path d="M29.1194 51.9335C29.1194 48.1761 30.5284 44.8885 33.1899 42.0705C36.0079 39.2524 39.2956 38 43.0529 38C46.8102 38 50.0979 39.409 52.9159 42.0705C55.7339 44.7319 56.9864 48.0196 56.9864 51.9335C56.9864 55.6908 55.5774 58.9785 52.9159 61.7965C50.2545 64.4579 46.9668 65.8669 43.0529 65.8669C39.139 65.8669 36.0079 64.4579 33.1899 61.7965C30.5284 58.9785 29.1194 55.6908 29.1194 51.9335ZM33.8161 51.9335C33.8161 54.4384 34.7555 56.6301 36.4776 58.5088C38.3562 60.3875 40.548 61.1703 43.0529 61.1703C45.5578 61.1703 47.7496 60.2309 49.6283 58.5088C51.5069 56.6301 52.4463 54.4384 52.4463 51.9335C52.4463 49.4286 51.5069 47.2368 49.6283 45.3581C47.7496 43.4795 45.7144 42.5401 43.0529 42.5401C40.3915 42.5401 38.3562 43.4795 36.4776 45.3581C34.5989 47.2368 33.8161 49.272 33.8161 51.9335Z" fill="#3C3C3B"/>
<path d="M16.5949 49.5851H15.0294H12.3679H12.8376H8.1409C6.26223 49.5851 4.69667 48.0196 4.69667 46.1409C4.69667 44.2622 6.26223 42.6967 8.1409 42.6967H12.8376H12.3679H15.9687H19.2564C20.5088 42.6967 21.6047 41.6008 21.6047 40.3483C21.6047 39.0959 20.5088 38 19.2564 38H10.4892C10.1761 38 8.61057 38 8.1409 38C3.60078 38 0 41.6008 0 46.1409C0 50.681 3.60078 54.2818 8.1409 54.2818H9.86301H12.8376H12.3679H16.5949C18.4736 54.2818 20.0391 55.8474 20.0391 57.726C20.0391 59.6047 18.4736 61.1703 16.5949 61.1703H12.3679H12.8376H8.76712H2.34834C1.09589 61.1703 0 62.2662 0 63.5186C0 64.771 1.09589 65.8669 2.34834 65.8669H14.2466C14.5597 65.8669 16.1252 65.8669 16.5949 65.8669C21.135 65.8669 24.7358 62.2662 24.7358 57.726C24.7358 53.1859 20.9785 49.5851 16.5949 49.5851Z" fill="#3C3C3B"/>
<path d="M0 2.50486C0 1.25242 1.09589 0.156525 2.34834 0.156525H21.7612C23.0137 0.156525 24.1096 1.25242 24.1096 2.50486C24.1096 3.75731 23.0137 4.8532 21.7612 4.8532H4.69667V11.7417H17.8474C19.0998 11.7417 20.1957 12.8375 20.1957 14.09C20.1957 15.3424 19.0998 16.4383 17.8474 16.4383H4.69667V23.3268H21.7612C23.0137 23.3268 24.1096 24.4227 24.1096 25.6751C24.1096 26.9276 23.0137 28.0235 21.7612 28.0235H2.34834C1.09589 28.0235 0 26.9276 0 25.6751V2.50486Z" fill="white"/>
<path d="M46.3404 20.6654L43.0528 17.3777L33.0332 27.3973C32.0939 28.3366 30.6849 28.3366 29.7455 27.3973C28.8062 26.4579 28.8062 25.0489 29.7455 24.1096L39.7651 14.09L29.7455 4.07045C29.2758 3.60078 29.1193 3.13112 29.1193 2.34834C29.1193 1.09589 30.2152 0 31.4676 0C32.0939 0 32.5635 0.156556 33.0332 0.626223L43.0528 10.6458L53.0723 0.626223C53.542 0.156556 54.1682 0 54.6379 0C56.6731 0 57.769 2.50489 56.2034 3.91389L46.3404 13.7769L49.6281 17.0646C50.0978 17.5342 50.2543 18.0039 50.2543 18.6301C50.2543 19.8826 49.1584 20.9785 47.906 20.9785C47.2798 21.2916 46.6535 21.135 46.3404 20.6654Z" fill="white"/>
<path d="M54.6379 28.0235C55.9349 28.0235 56.9863 26.9721 56.9863 25.6752C56.9863 24.3782 55.9349 23.3268 54.6379 23.3268C53.341 23.3268 52.2896 24.3782 52.2896 25.6752C52.2896 26.9721 53.341 28.0235 54.6379 28.0235Z" fill="white"/>
</svg>
