<svg width="89" height="21" viewBox="0 0 89 21" fill="none" xmlns="http://www.w3.org/2000/svg">
<path d="M67.8993 10.4118C67.8993 7.60411 68.9522 5.1474 70.9411 3.04164C73.0469 0.93589 75.5037 0 78.3115 0C81.1193 0 83.5762 1.05288 85.682 3.04164C87.7879 5.03041 88.7238 7.48712 88.7238 10.4118C88.7238 13.2194 87.6709 15.6762 85.682 17.7819C83.6932 19.7707 81.2363 20.8236 78.3115 20.8236C75.3868 20.8236 73.0469 19.7707 70.9411 17.7819C68.9522 15.6762 67.8993 13.2194 67.8993 10.4118ZM71.409 10.4118C71.409 12.2836 72.111 13.9214 73.3979 15.3252C74.8018 16.729 76.4397 17.314 78.3115 17.314C80.1834 17.314 81.8213 16.6121 83.2252 15.3252C84.6291 13.9214 85.331 12.2836 85.331 10.4118C85.331 8.54 84.6291 6.90219 83.2252 5.49835C81.8213 4.09452 80.3004 3.3926 78.3115 3.3926C76.3227 3.3926 74.8018 4.09452 73.3979 5.49835C71.994 6.90219 71.409 8.42301 71.409 10.4118Z" fill="#3C3C3B"/>
<path d="M58.5398 8.65698H57.3699H55.381H55.732H52.2222C50.8183 8.65698 49.6484 7.48712 49.6484 6.08329C49.6484 4.67945 50.8183 3.50959 52.2222 3.50959H55.732H55.381H58.0718H60.5286C61.4646 3.50959 62.2835 2.69068 62.2835 1.75479C62.2835 0.818904 61.4646 0 60.5286 0H53.9771C53.7431 0 52.5732 0 52.2222 0C48.8295 0 46.1387 2.69068 46.1387 6.08329C46.1387 9.47589 48.8295 12.1666 52.2222 12.1666H53.5091H55.732H55.381H58.5398C59.9437 12.1666 61.1136 13.3364 61.1136 14.7403C61.1136 16.1441 59.9437 17.314 58.5398 17.314H55.381H55.732H52.6902H47.8935C46.9576 17.314 46.1387 18.1329 46.1387 19.0688C46.1387 20.0046 46.9576 20.8236 47.8935 20.8236H56.7849C57.0189 20.8236 58.1888 20.8236 58.5398 20.8236C61.9325 20.8236 64.6234 18.1329 64.6234 14.7403C64.6234 11.3477 61.8156 8.65698 58.5398 8.65698Z" fill="#3C3C3B"/>
<path d="M0 1.87131C0 0.93542 0.818942 0.116516 1.75487 0.116516H16.2618C17.1978 0.116516 18.0167 0.93542 18.0167 1.87131C18.0167 2.8072 17.1978 3.6261 16.2618 3.6261H3.50975V8.7735H13.337C14.273 8.7735 15.0919 9.5924 15.0919 10.5283C15.0919 11.4642 14.273 12.2831 13.337 12.2831H3.50975V17.4305H16.2618C17.1978 17.4305 18.0167 18.2494 18.0167 19.1853C18.0167 20.1212 17.1978 20.9401 16.2618 20.9401H1.75487C0.818942 20.9401 0 20.1212 0 19.1853V1.87131Z" fill="white"/>
<path d="M34.6295 15.4422L32.1727 12.9855L24.6852 20.4726C23.9832 21.1745 22.9303 21.1745 22.2284 20.4726C21.5264 19.7707 21.5264 18.7178 22.2284 18.0159L29.7158 10.5288L22.2284 3.04164C21.8774 2.69068 21.7604 2.33972 21.7604 1.75479C21.7604 0.818904 22.5793 0 23.5153 0C23.9832 0 24.3342 0.116986 24.6852 0.467945L32.1727 7.95506L39.6601 0.467945C40.0111 0.116986 40.4791 0 40.83 0C42.3509 0 43.1699 1.87178 42 2.92466L34.6295 10.2948L37.0863 12.7515C37.4373 13.1025 37.5543 13.4534 37.5543 13.9214C37.5543 14.8573 36.7353 15.6762 35.7994 15.6762C35.3314 15.9101 34.8635 15.7931 34.6295 15.4422Z" fill="white"/>
<path d="M40.8301 20.9406C41.7993 20.9406 42.5849 20.1549 42.5849 19.1858C42.5849 18.2166 41.7993 17.431 40.8301 17.431C39.8609 17.431 39.0752 18.2166 39.0752 19.1858C39.0752 20.1549 39.8609 20.9406 40.8301 20.9406Z" fill="white"/>
</svg>
